grf
version=1
nRows=19
nColumns=37
inDegrees=no
endheader
time	ground_force_1_vx	ground_force_1_vy	ground_force_1_vz	ground_force_1_px	ground_force_1_py	ground_force_1_pz	ground_moment_1_mx	ground_moment_1_my	ground_moment_1_mz	ground_force_2_vx	ground_force_2_vy	ground_force_2_vz	ground_force_2_px	ground_force_2_py	ground_force_2_pz	ground_moment_2_mx	ground_moment_2_my	ground_moment_2_mz	ground_force_3_vx	ground_force_3_vy	ground_force_3_vz	ground_force_3_px	ground_force_3_py	ground_force_3_pz	ground_moment_3_mx	ground_moment_3_my	ground_moment_3_mz	ground_force_4_vx	ground_force_4_vy	ground_force_4_vz	ground_force_4_px	ground_force_4_py	ground_force_4_pz	ground_moment_4_mx	ground_moment_4_my	ground_moment_4_mz
      4.80000000	      0.00000000	     -0.00000000	      0.00000000	      0.00000000	      0.00000000	      0.00000000	      0.00000000	      0.00000000	      0.00000000	      8.09476089	     35.02825165	   -254.02899170	   -387.84308163	  -1119.69353973	      0.00000000	      0.00000000	      0.00000000	    681.81513611	      0.64418843	    -37.49462131	   -301.88726807	   -363.28856132	   -682.24560546	      0.00000000	      0.00000000	     -0.00000000	  -1240.57677864	      0.00000000	     -0.00000000	      0.00000000	      0.00000000	      0.00000000	      0.00000000	      0.00000000	      0.00000000	      0.00000000
      4.81000000	      0.00000000	     -0.00000000	      0.00000000	      0.00000000	      0.00000000	      0.00000000	      0.00000000	      0.00000000	      0.00000000	      9.81315613	     29.51124191	   -224.64421082	   -392.82627266	  -1117.05409256	      0.00000000	      0.00000000	      0.00000000	    410.23124506	      0.99931298	    -35.73781972	   -286.59686279	   -367.10245311	   -684.39138322	      0.00000000	      0.00000000	     -0.00000000	   -993.45670567	      0.00000000	     -0.00000000	      0.00000000	      0.00000000	      0.00000000	      0.00000000	      0.00000000	      0.00000000	      0.00000000
      4.82000000	      0.00000000	     -0.00000000	      0.00000000	      0.00000000	      0.00000000	      0.00000000	      0.00000000	      0.00000000	      0.00000000	     10.47894478	     24.32392311	   -194.11978149	   -398.22142059	  -1113.98950356	      0.00000000	      0.00000000	      0.00000000	    232.60126065	      2.34766209	    -35.46431742	   -269.32373047	   -370.26806090	   -686.02155701	      0.00000000	      0.00000000	     -0.00000000	   -605.10206328	      0.00000000	     -0.00000000	      0.00000000	      0.00000000	      0.00000000	      0.00000000	      0.00000000	      0.00000000	      0.00000000
      4.83000000	      0.00000000	     -0.00000000	      0.00000000	      0.00000000	      0.00000000	      0.00000000	      0.00000000	      0.00000000	      0.00000000	     11.94649696	     20.01362801	   -165.92916870	   -401.24059386	  -1115.55244432	      0.00000000	      0.00000000	     -0.00000000	    -84.21117585	      4.95951454	    -34.53378318	   -252.14947510	   -373.97186706	   -686.66021578	      0.00000000	      0.00000000	     -0.00000000	   -416.38882422	      0.00000000	     -0.00000000	      0.00000000	      0.00000000	      0.00000000	      0.00000000	      0.00000000	      0.00000000	      0.00000000
      4.84000000	      0.00000000	     -0.00000000	      0.00000000	      0.00000000	      0.00000000	      0.00000000	      0.00000000	      0.00000000	      0.00000000	     12.58651733	     17.12969971	   -141.30697632	   -404.82544310	  -1115.58660744	      0.00000000	      0.00000000	     -0.00000000	    -79.24363015	      7.58047338	    -33.67478213	   -236.50234985	   -376.77295757	   -686.76762960	      0.00000000	      0.00000000	     -0.00000000	   -243.71513020	      0.00000000	     -0.00000000	      0.00000000	      0.00000000	      0.00000000	      0.00000000	      0.00000000	      0.00000000	      0.00000000
      4.85000000	      0.00000000	     -0.00000000	      0.00000000	      0.00000000	      0.00000000	      0.00000000	      0.00000000	      0.00000000	      0.00000000	     13.23535538	     14.34261227	   -119.85547638	   -404.38934577	  -1113.52080839	      0.00000000	      0.00000000	     -0.00000000	   -207.88817922	      9.76560638	    -33.32178921	   -226.47328186	   -379.62855696	   -686.80843907	      0.00000000	      0.00000000	     -0.00000000	    -91.05580981	      0.00000000	     -0.00000000	      0.00000000	      0.00000000	      0.00000000	      0.00000000	      0.00000000	      0.00000000	      0.00000000
      4.86000000	      0.00000000	     -0.00000000	      0.00000000	      0.00000000	      0.00000000	      0.00000000	      0.00000000	      0.00000000	      0.00000000	     13.56698132	     11.07722855	   -101.88676453	   -405.78851207	  -1112.41752467	      0.00000000	      0.00000000	     -0.00000000	   -379.08250871	     10.25853970	    -32.23042724	   -214.82620239	   -381.32037961	   -688.03565646	      0.00000000	      0.00000000	      0.00000000	     87.09312425	      0.00000000	     -0.00000000	      0.00000000	      0.00000000	      0.00000000	      0.00000000	      0.00000000	      0.00000000	      0.00000000
      4.87000000	      0.00000000	     -0.00000000	      0.00000000	      0.00000000	      0.00000000	      0.00000000	      0.00000000	      0.00000000	      0.00000000	     14.06989765	      8.86235905	    -89.12772369	   -412.36879379	  -1109.57185044	      0.00000000	      0.00000000	     -0.00000000	   -409.72922104	      9.37817050	    -32.40749019	   -206.44767761	   -381.96907132	   -687.59738794	      0.00000000	      0.00000000	      0.00000000	    294.38128281	      0.00000000	     -0.00000000	      0.00000000	      0.00000000	      0.00000000	      0.00000000	      0.00000000	      0.00000000	      0.00000000
      4.88000000	      0.00000000	     -0.00000000	      0.00000000	      0.00000000	      0.00000000	      0.00000000	      0.00000000	      0.00000000	      0.00000000	     14.88588142	      7.56995296	    -81.56027222	   -409.03457537	  -1114.99178168	      0.00000000	      0.00000000	     -0.00000000	   -398.19550090	      9.08012821	    -32.42020837	   -197.49533081	   -384.95906012	   -688.43041557	      0.00000000	      0.00000000	      0.00000000	    431.02340420	      0.00000000	     -0.00000000	      0.00000000	      0.00000000	      0.00000000	      0.00000000	      0.00000000	      0.00000000	      0.00000000
      4.89000000	      0.00000000	     -0.00000000	      0.00000000	      0.00000000	      0.00000000	      0.00000000	      0.00000000	      0.00000000	      0.00000000	     15.75862694	      5.80484533	    -72.29917908	   -415.07076001	  -1114.73929419	      0.00000000	      0.00000000	     -0.00000000	   -472.64113085	     10.15024140	    -32.11204573	   -191.21118164	   -386.64691704	   -685.69597719	      0.00000000	      0.00000000	      0.00000000	    625.99016779	      0.00000000	     -0.00000000	      0.00000000	      0.00000000	      0.00000000	      0.00000000	      0.00000000	      0.00000000	      0.00000000
      4.90000000	      0.00000000	     -0.00000000	      0.00000000	      0.00000000	      0.00000000	      0.00000000	      0.00000000	      0.00000000	      0.00000000	     16.30988312	      4.48270941	    -65.67053986	   -414.88663710	  -1112.02915004	      0.00000000	      0.00000000	     -0.00000000	   -462.65849486	     12.31011255	    -31.12044388	   -187.12428284	   -388.63919026	   -687.10955967	      0.00000000	      0.00000000	      0.00000000	    739.64611036	      0.00000000	     -0.00000000	      0.00000000	      0.00000000	      0.00000000	      0.00000000	      0.00000000	      0.00000000	      0.00000000
      4.91000000	      0.00000000	     -0.00000000	      0.00000000	      0.00000000	      0.00000000	      0.00000000	      0.00000000	      0.00000000	      0.00000000	     16.54016113	      3.43990159	    -58.39883041	   -417.48859915	  -1117.45162152	      0.00000000	      0.00000000	     -0.00000000	   -627.94787087	     14.96582284	    -29.49455708	   -185.29600525	   -389.05557634	   -686.60796647	      0.00000000	      0.00000000	      0.00000000	    691.13994861	      0.00000000	     -0.00000000	      0.00000000	      0.00000000	      0.00000000	      0.00000000	      0.00000000	      0.00000000	      0.00000000
      4.92000000	      0.00000000	     -0.00000000	      0.00000000	      0.00000000	      0.00000000	      0.00000000	      0.00000000	      0.00000000	      0.00000000	     17.06600189	      2.33092833	    -53.68334961	   -423.78528972	  -1113.74999432	      0.00000000	      0.00000000	     -0.00000000	   -546.89030036	     17.36518359	    -27.37083320	   -182.95544434	   -390.50506559	   -688.92704227	      0.00000000	      0.00000000	      0.00000000	    848.61809441	      0.00000000	     -0.00000000	      0.00000000	      0.00000000	      0.00000000	      0.00000000	      0.00000000	      0.00000000	      0.00000000
      4.93000000	      0.00000000	     -0.00000000	      0.00000000	      0.00000000	      0.00000000	      0.00000000	      0.00000000	      0.00000000	      0.00000000	     16.87275505	      1.17777693	    -50.96510696	   -423.72989291	  -1113.07638016	      0.00000000	      0.00000000	     -0.00000000	   -647.66665216	     19.63195881	    -25.31754198	   -184.82289124	   -391.12893298	   -689.13966145	      0.00000000	      0.00000000	      0.00000000	   1014.88120773	      0.00000000	     -0.00000000	      0.00000000	      0.00000000	      0.00000000	      0.00000000	      0.00000000	      0.00000000	      0.00000000
      4.94000000	      0.00000000	     -0.00000000	      0.00000000	      0.00000000	      0.00000000	      0.00000000	      0.00000000	      0.00000000	      0.00000000	     16.79892159	     -0.02373907	    -49.26594543	   -415.21680135	  -1108.14217982	      0.00000000	      0.00000000	     -0.00000000	   -687.03400205	     20.40712059	    -24.52278036	   -191.19960022	   -389.90615830	   -688.35803074	      0.00000000	      0.00000000	      0.00000000	   1095.72963892	      0.00000000	     -0.00000000	      0.00000000	      0.00000000	      0.00000000	      0.00000000	      0.00000000	      0.00000000	      0.00000000
      4.95000000	      0.00000000	     -0.00000000	      0.00000000	      0.00000000	      0.00000000	      0.00000000	      0.00000000	      0.00000000	      0.00000000	     17.06999779	     -0.56554461	    -50.62662506	   -418.93642134	  -1113.39252303	      0.00000000	      0.00000000	     -0.00000000	   -686.72954992	     19.84700481	    -23.63970462	   -199.84797668	   -390.79336968	   -688.83018716	      0.00000000	      0.00000000	      0.00000000	   1288.50124059	      0.00000000	     -0.00000000	      0.00000000	      0.00000000	      0.00000000	      0.00000000	      0.00000000	      0.00000000	      0.00000000
      4.96000000	      0.00000000	     -0.00000000	      0.00000000	      0.00000000	      0.00000000	      0.00000000	      0.00000000	      0.00000000	      0.00000000	     16.59315491	     -0.71304321	    -56.16643524	   -416.76419355	  -1114.56215173	      0.00000000	      0.00000000	     -0.00000000	   -765.77321010	     19.78529828	    -23.37209788	   -213.81182861	   -389.13172120	   -689.06123713	      0.00000000	      0.00000000	      0.00000000	   1372.11774180	      0.00000000	     -0.00000000	      0.00000000	      0.00000000	      0.00000000	      0.00000000	      0.00000000	      0.00000000	      0.00000000
      4.97000000	      0.00000000	     -0.00000000	      0.00000000	      0.00000000	      0.00000000	      0.00000000	      0.00000000	      0.00000000	      0.00000000	     15.46162987	     -0.44107968	    -69.46475983	   -412.42270935	  -1119.72423276	      0.00000000	      0.00000000	     -0.00000000	   -883.45122200	     18.83468905	    -23.96539770	   -234.97903442	   -387.49867435	   -688.42962876	      0.00000000	      0.00000000	      0.00000000	   1496.81643625	      0.00000000	     -0.00000000	      0.00000000	      0.00000000	      0.00000000	      0.00000000	      0.00000000	      0.00000000	      0.00000000
      4.98000000	      0.00000000	     -0.00000000	      0.00000000	      0.00000000	      0.00000000	      0.00000000	      0.00000000	      0.00000000	      0.00000000	     15.85287380	     -0.47598964	    -88.52794647	   -409.72364956	  -1117.71899107	      0.00000000	      0.00000000	     -0.00000000	   -910.81464410	     18.65363963	    -25.49488149	   -258.96688843	   -387.26965097	   -688.48977921	      0.00000000	      0.00000000	      0.00000000	   1637.78811521	      0.00000000	     -0.00000000	      0.00000000	      0.00000000	      0.00000000	      0.00000000	      0.00000000	      0.00000000	      0.00000000
